<svg xmlns="http://www.w3.org/2000/svg" width="20" height="20" viewBox="0 0 20 20"><title/><path d="M11.766 2.669h5.592v3.797h-5.592V2.669zM8.971 14.961H2.544v-4.542h6.424v4.542h.003zM1.372 9.074C1.123 9.071 1 9.196 1 9.451v6.479c0 .252.123.377.372.377H4.41v.971h-.798c-.249 0-.372.128-.372.38v.467c0 .252.124.377.372.377h4.297c.248 0 .372-.125.372-.377v-.467c0-.252-.124-.38-.372-.38h-.801v-.971h3.038c.25 0 .372-.125.372-.377V9.45c0-.253-.122-.378-.372-.378m.269-1.768c0 .223.11.335.329.335h2.645v.866h-.701c-.221 0-.33.112-.33.335v.401c0 .223.109.335.33.335h3.75v-.003c.22 0 .328-.111.328-.335v-.401c0-.224-.108-.335-.328-.335h-.703v-.869h2.654c.213 0 .32-.112.32-.335V1.824c0-.215-.107-.324-.32-.324h-7.641c-.221 0-.329.109-.329.324"/><path fill="none" stroke="#000" stroke-miterlimit="10" d="M6.562 4.803H11M5.333 10V5.844"/><circle fill="#F00" stroke="#000" stroke-miterlimit="10" cx="5.333" cy="4.803" r="3.5"/></svg>